<svg width="220" height="80" viewBox="0 0 220 80" fill="none" xmlns="http://www.w3.org/2000/svg">
<path d="M91.62 29.9L74.88 14.78L76.17 15.5L76.26 29H71.85V6.05H72.03L88.41 21.11L87.45 20.69L87.36 6.92H91.74V29.9H91.62ZM96.3262 17.99C96.3262 16.47 96.6162 15.03 97.1962 13.67C97.7762 12.31 98.5762 11.11 99.5962 10.07C100.636 9.01 101.836 8.18 103.196 7.58C104.556 6.98 106.006 6.68 107.546 6.68C109.106 6.68 110.566 6.98 111.926 7.58C113.286 8.18 114.486 9.01 115.526 10.07C116.586 11.11 117.406 12.31 117.986 13.67C118.586 15.03 118.886 16.47 118.886 17.99C118.886 19.55 118.586 21.01 117.986 22.37C117.406 23.73 116.586 24.93 115.526 25.97C114.486 26.99 113.286 27.79 111.926 28.37C110.566 28.95 109.116 29.24 107.576 29.24C106.016 29.24 104.556 28.95 103.196 28.37C101.836 27.79 100.636 26.99 99.5962 25.97C98.5762 24.93 97.7762 23.73 97.1962 22.37C96.6162 21.01 96.3262 19.55 96.3262 17.99ZM100.826 17.99C100.826 19.29 101.126 20.48 101.726 21.56C102.346 22.62 103.176 23.47 104.216 24.11C105.256 24.73 106.426 25.04 107.726 25.04C108.986 25.04 110.116 24.73 111.116 24.11C112.136 23.47 112.936 22.62 113.516 21.56C114.096 20.48 114.386 19.29 114.386 17.99C114.386 16.65 114.086 15.45 113.486 14.39C112.886 13.31 112.076 12.46 111.056 11.84C110.036 11.2 108.886 10.88 107.606 10.88C106.326 10.88 105.176 11.2 104.156 11.84C103.136 12.46 102.326 13.31 101.726 14.39C101.126 15.45 100.826 16.65 100.826 17.99ZM130.163 6.92C132.023 6.92 133.593 7.23 134.873 7.85C136.153 8.45 137.123 9.31 137.783 10.43C138.463 11.53 138.803 12.84 138.803 14.36C138.803 15.26 138.663 16.16 138.383 17.06C138.123 17.96 137.683 18.78 137.063 19.52C136.463 20.26 135.663 20.86 134.663 21.32C133.663 21.76 132.423 21.98 130.943 21.98H127.823V29H123.473V6.92H130.163ZM130.913 17.78C131.793 17.78 132.473 17.6 132.953 17.24C133.453 16.86 133.803 16.42 134.003 15.92C134.203 15.4 134.303 14.93 134.303 14.51C134.303 14.27 134.263 13.97 134.183 13.61C134.123 13.23 133.983 12.85 133.763 12.47C133.543 12.09 133.203 11.77 132.743 11.51C132.303 11.25 131.703 11.12 130.943 11.12H127.823V17.78H130.913ZM134.993 20.48L140.453 29H135.383L129.803 20.6L134.993 20.48ZM142.35 6.92H157.23V11.12H151.86V29H147.51V11.12H142.35V6.92ZM180.248 6.92V29H175.898V20.03H166.028V29H161.678V6.92H166.028V15.83H175.898V6.92H180.248Z" fill="#408095"/>
<path d="M83.64 43.26C82.8 42.8 81.94 42.42 81.06 42.12C80.2 41.82 79.39 41.67 78.63 41.67C77.69 41.67 76.95 41.86 76.41 42.24C75.87 42.62 75.6 43.19 75.6 43.95C75.6 44.47 75.8 44.94 76.2 45.36C76.62 45.76 77.15 46.12 77.79 46.44C78.45 46.76 79.13 47.05 79.83 47.31C80.69 47.63 81.52 48.04 82.32 48.54C83.12 49.02 83.78 49.69 84.3 50.55C84.82 51.39 85.08 52.51 85.08 53.91C85.08 55.03 84.79 56.07 84.21 57.03C83.63 57.99 82.78 58.77 81.66 59.37C80.54 59.95 79.16 60.24 77.52 60.24C76.26 60.24 74.97 60.05 73.65 59.67C72.35 59.29 71.12 58.69 69.96 57.87L71.88 54.48C72.64 55.04 73.51 55.5 74.49 55.86C75.47 56.22 76.35 56.4 77.13 56.4C77.65 56.4 78.17 56.33 78.69 56.19C79.23 56.03 79.67 55.77 80.01 55.41C80.37 55.05 80.55 54.55 80.55 53.91C80.55 53.47 80.4 53.07 80.1 52.71C79.82 52.35 79.43 52.02 78.93 51.72C78.45 51.42 77.92 51.16 77.34 50.94C76.66 50.68 75.96 50.38 75.24 50.04C74.52 49.7 73.84 49.29 73.2 48.81C72.58 48.31 72.07 47.7 71.67 46.98C71.29 46.24 71.1 45.34 71.1 44.28C71.1 43 71.38 41.89 71.94 40.95C72.52 40.01 73.33 39.27 74.37 38.73C75.41 38.17 76.61 37.86 77.97 37.8C79.75 37.8 81.19 38.01 82.29 38.43C83.41 38.85 84.41 39.35 85.29 39.93L83.64 43.26ZM88.0902 37.92H102.97V42.12H97.6002V60H93.2502V42.12H88.0902V37.92ZM103.141 60L113.101 37.05H113.341L123.301 60H118.261L111.901 43.86L115.051 41.7L107.431 60H103.141ZM109.951 52.02H116.581L118.111 55.68H108.601L109.951 52.02ZM133.46 37.92C135.32 37.92 136.89 38.23 138.17 38.85C139.45 39.45 140.42 40.31 141.08 41.43C141.76 42.53 142.1 43.84 142.1 45.36C142.1 46.26 141.96 47.16 141.68 48.06C141.42 48.96 140.98 49.78 140.36 50.52C139.76 51.26 138.96 51.86 137.96 52.32C136.96 52.76 135.72 52.98 134.24 52.98H131.12V60H126.77V37.92H133.46ZM134.21 48.78C135.09 48.78 135.77 48.6 136.25 48.24C136.75 47.86 137.1 47.42 137.3 46.92C137.5 46.4 137.6 45.93 137.6 45.51C137.6 45.27 137.56 44.97 137.48 44.61C137.42 44.23 137.28 43.85 137.06 43.47C136.84 43.09 136.5 42.77 136.04 42.51C135.6 42.25 135 42.12 134.24 42.12H131.12V48.78H134.21ZM138.29 51.48L143.75 60H138.68L133.1 51.6L138.29 51.48Z" fill="#CC4C4C"/>
<path d="M42.403 30.3258L25.8876 15.3071L36.2627 3L37.3213 18.2274L64 22.8165L42.403 30.3258Z" fill="#408095"/>
<path d="M8.59956 13.7865L23.4338 16.3224L39.558 38.7232L41.7079 65.5618L23.4338 37.8779L0 46.331L16.7691 26.4662L8.59956 13.7865Z" fill="#CC4D4D"/>
</svg>
